<svg width="128" height="128" viewBox="0 0 128 128" fill="none" xmlns="http://www.w3.org/2000/svg">
  <defs>
    <linearGradient id="bg" x1="16" y1="10" x2="112" y2="118" gradientUnits="userSpaceOnUse">
      <stop stop-color="#FF4D6D"/>
      <stop offset="1" stop-color="#4CC9F0"/>
    </linearGradient>
  </defs>
  <rect x="8" y="8" width="112" height="112" rx="34" fill="url(#bg)"/>
  <path d="M32 40.5C32 35.2533 36.2533 31 41.5 31H45.6491C49.2233 31 52.5188 32.9094 54.2814 36.0065L61.7154 49.0605C62.436 50.3257 64.2578 50.3226 64.9743 49.0551L72.2911 36.1112C74.0513 33.0001 77.3576 31.0782 80.9464 31.0782H83.9726C89.2193 31.0782 93.4726 35.3315 93.4726 40.5782V90.5C93.4726 95.7467 89.2193 100 83.9726 100H80.4215C75.1748 100 70.9215 95.7467 70.9215 90.5V68.265C70.9215 66.3283 68.3649 65.6304 67.3788 67.2986L62.58 75.4185C60.708 78.5844 56.1221 78.5972 54.2326 75.4422L49.0807 66.8422C48.0828 65.1756 45.5293 65.8824 45.5293 67.8247V90.5C45.5293 95.7467 41.276 100 36.0293 100H32C26.7533 100 22.5 95.7467 22.5 90.5V40.5H32Z" fill="white"/>
</svg>
